<svg width="1602" height="1201" fill="none" xmlns="http://www.w3.org/2000/svg"><g opacity=".4" fill="#21262D" stroke="#6E7681" strokeLinecap="round" stroke-dasharray="2 5"><path d="M1466.43 134.222h-133.22v133.222h133.22V134.222ZM1466.43 667.111h-133.22v133.222h133.22V667.111Z"/><path opacity=".8" d="M1599.65 667.111h-133.22v133.222h133.22V667.111Z"/><path opacity=".56" d="M667.106 667.111H533.885v133.222h133.221V667.111Z"/><path d="M1066.77 134.222H933.548v133.222h133.222V134.222ZM1066.77 667.111H933.548v133.222h133.222V667.111ZM1466.43 400.667h-133.22v133.221h133.22V400.667ZM667.106 400.667H533.885v133.221h133.221V400.667Z"/><path opacity=".56" d="M1066.77 400.667H933.548v133.221h133.222V400.667Z"/><path opacity=".8" d="M1066.77 933.556H933.548v133.224h133.222V933.556Z"/><path opacity=".64" d="M1466.43 267.444h-133.22v133.223h133.22V267.444Z"/><path d="M1599.65 267.444h-133.22v133.223h133.22V267.444ZM1466.43 800.333h-133.22v133.222h133.22V800.333ZM667.106 800.333H533.885v133.222h133.221V800.333ZM1066.77 267.444H933.548v133.223h133.222V267.444ZM1066.77 800.333H933.548v133.222h133.222V800.333ZM667.106 533.889H533.885v133.222h133.221V533.889ZM1601 1066.78h-133.22V1200H1601v-133.22ZM1066.77 533.889H933.548v133.222h133.222V533.889ZM1066.77 1066.78H933.548V1200h133.222v-133.22ZM267.442 1066.78H134.221V1200h133.221v-133.22ZM1333.21 667.111h-133.22v133.222h133.22V667.111ZM533.885 667.111H400.664v133.222h133.221V667.111ZM134.221 134.222H1v133.222h133.221V134.222ZM933.548 667.111H800.327v133.222h133.221V667.111ZM1333.21 400.667h-133.22v133.221h133.22V400.667Z"/><path opacity=".8" d="M533.885 400.667H400.664v133.221h133.221V400.667Z"/><path d="M933.548 400.667H800.327v133.221h133.221V400.667ZM933.548 933.556H800.327v133.224h133.221V933.556ZM134.221 933.556H1v133.224h133.221V933.556Z"/><path opacity=".56" d="M1333.21 800.333h-133.22v133.222h133.22V800.333Z"/><path opacity=".8" d="M533.885 800.333H400.664v133.222h133.221V800.333ZM933.548 800.333H800.327v133.222h133.221V800.333Z"/><path d="M1333.21 533.889h-133.22v133.222h133.22V533.889Z"/><path opacity=".72" d="M533.885 533.889H400.664v133.222h133.221V533.889Z"/><path opacity=".8" d="M933.548 533.889H800.327v133.222h133.221V533.889Z"/><path d="M933.548 1066.78H800.327V1200h133.221v-133.22ZM1199.99 1h-133.22v133.222h133.22V1Z"/><path opacity=".72" d="M1199.99 667.111h-133.22v133.222h133.22V667.111Z"/><path opacity=".64" d="M400.664 667.111H267.442v133.222h133.222V667.111Z"/><path d="M800.327 667.111H667.106v133.222h133.221V667.111ZM1199.99 400.667h-133.22v133.221h133.22V400.667ZM1199.99 933.556h-133.22v133.224h133.22V933.556Z"/><path opacity=".8" d="M400.664 933.556H267.442v133.224h133.222V933.556Z"/><path opacity=".64" d="M800.327 400.667H667.106v133.221h133.221V400.667Z"/><path d="M800.327 933.556H667.106v133.224h133.221V933.556Z"/><path opacity=".8" d="M1199.99 267.444h-133.22v133.223h133.22V267.444Z"/><path d="M1199.99 800.333h-133.22v133.222h133.22V800.333ZM800.327 267.444H667.106v133.223h133.221V267.444ZM800.327 800.333H667.106v133.222h133.221V800.333Z"/><path opacity=".8" d="M1199.99 533.889h-133.22v133.222h133.22V533.889ZM800.327 533.889H667.106v133.222h133.221V533.889Z"/></g></svg>