<svg xmlns="http://www.w3.org/2000/svg" width="1602" height="1201" fill="none"><g fill="#21262D" stroke="#6E7681" stroke-dasharray="2 5" opacity=".4"><path d="M1466.43 134.222h-133.22v133.222h133.22zm0 532.889h-133.22v133.222h133.22z"/><path d="M1599.65 667.111h-133.22v133.222h133.22z" opacity=".8"/><path d="M667.106 667.111H533.885v133.222h133.221z" opacity=".56"/><path d="M1066.77 134.222H933.548v133.222h133.222zm0 532.889H933.548v133.222h133.222zm399.66-266.444h-133.22v133.221h133.22zm-799.324 0H533.885v133.221h133.221z"/><path d="M1066.77 400.667H933.548v133.221h133.222z" opacity=".56"/><path d="M1066.77 933.556H933.548v133.224h133.222z" opacity=".8"/><path d="M1466.43 267.444h-133.22v133.223h133.22z" opacity=".64"/><path d="M1599.65 267.444h-133.22v133.223h133.22zm-133.22 532.889h-133.22v133.222h133.22zm-799.324 0H533.885v133.222h133.221zm399.664-532.889H933.548v133.223h133.222zm0 532.889H933.548v133.222h133.222zM667.106 533.889H533.885v133.222h133.221zM1601 1066.78h-133.22V1200H1601zm-534.23-532.891H933.548v133.222h133.222zm0 532.891H933.548V1200h133.222zm-799.328 0H134.221V1200h133.221zM1333.21 667.111h-133.22v133.222h133.22zm-799.325 0H400.664v133.222h133.221zM134.221 134.222H1v133.222h133.221zm799.327 532.889H800.327v133.222h133.221zm399.662-266.444h-133.22v133.221h133.22z"/><path d="M533.885 400.667H400.664v133.221h133.221z" opacity=".8"/><path d="M933.548 400.667H800.327v133.221h133.221zm0 532.889H800.327v133.224h133.221zm-799.327 0H1v133.224h133.221z"/><path d="M1333.21 800.333h-133.22v133.222h133.22z" opacity=".56"/><path d="M533.885 800.333H400.664v133.222h133.221zm399.663 0H800.327v133.222h133.221z" opacity=".8"/><path d="M1333.21 533.889h-133.22v133.222h133.22z"/><path d="M533.885 533.889H400.664v133.222h133.221z" opacity=".72"/><path d="M933.548 533.889H800.327v133.222h133.221z" opacity=".8"/><path d="M933.548 1066.78H800.327V1200h133.221zM1199.99 1h-133.22v133.222h133.22z"/><path d="M1199.99 667.111h-133.22v133.222h133.22z" opacity=".72"/><path d="M400.664 667.111H267.442v133.222h133.222z" opacity=".64"/><path d="M800.327 667.111H667.106v133.222h133.221zm399.663-266.444h-133.22v133.221h133.22zm0 532.889h-133.22v133.224h133.22z"/><path d="M400.664 933.556H267.442v133.224h133.222z" opacity=".8"/><path d="M800.327 400.667H667.106v133.221h133.221z" opacity=".64"/><path d="M800.327 933.556H667.106v133.224h133.221z"/><path d="M1199.99 267.444h-133.22v133.223h133.22z" opacity=".8"/><path d="M1199.99 800.333h-133.22v133.222h133.22zM800.327 267.444H667.106v133.223h133.221zm0 532.889H667.106v133.222h133.221z"/><path d="M1199.99 533.889h-133.22v133.222h133.22zm-399.663 0H667.106v133.222h133.221z" opacity=".8"/></g></svg>