<svg xmlns="http://www.w3.org/2000/svg" xmlns:xlink="http://www.w3.org/1999/xlink" width="3374" height="2700" fill="none"><linearGradient id="a"><stop offset="0" stop-color="#21d789"/><stop offset=".359" stop-color="#67b05d" stop-opacity=".79"/><stop offset="1" stop-color="#ff5c00" stop-opacity=".7"/></linearGradient><linearGradient xlink:href="#a" id="b" x1="567.821" x2="2315.21" y1="1829.14" y2="568.448" gradientUnits="userSpaceOnUse"/><linearGradient xlink:href="#a" id="c" x1="656.993" x2="2441.99" y1="1542.51" y2="944.825" gradientUnits="userSpaceOnUse"/><linearGradient xlink:href="#a" id="d" x1="806.021" x2="2403.93" y1="1327.18" y2="1327.18" gradientUnits="userSpaceOnUse"/><linearGradient xlink:href="#a" id="e" x1="984.016" x2="2223.6" y1="1179.58" y2="1594.64" gradientUnits="userSpaceOnUse"/><linearGradient xlink:href="#a" id="f" x1="1167.08" x2="2009.76" y1="1091.49" y2="1699.46" gradientUnits="userSpaceOnUse"/><linearGradient xlink:href="#a" id="g" x1="1338.17" x2="1848.69" y1="1052.18" y2="1690.14" gradientUnits="userSpaceOnUse"/><linearGradient xlink:href="#a" id="h" x1="1486.47" x2="1757.58" y1="1050.06" y2="1636.86" gradientUnits="userSpaceOnUse"/><linearGradient xlink:href="#a" id="i" x1="1606.43" x2="1715.49" y1="1073.96" y2="1582.58" gradientUnits="userSpaceOnUse"/><linearGradient xlink:href="#a" id="j" x1="1696.55" x2="1696.55" y1="1113.9" y2="1542.13" gradientUnits="userSpaceOnUse"/><linearGradient xlink:href="#a" id="k" x1="1758.32" x2="1682.58" y1="1161.6" y2="1514.82" gradientUnits="userSpaceOnUse"/><linearGradient xlink:href="#a" id="l" x1="1795.18" x2="1664.43" y1="1210.66" y2="1493.65" gradientUnits="userSpaceOnUse"/><linearGradient xlink:href="#a" id="m" x1="1811.63" x2="1640.66" y1="1256.51" y2="1470.17" gradientUnits="userSpaceOnUse"/><linearGradient xlink:href="#a" id="n" x1="1812.52" x2="1616.54" y1="1296.26" y2="1437.66" gradientUnits="userSpaceOnUse"/><linearGradient xlink:href="#a" id="o" x1="1802.52" x2="1602.32" y1="1328.41" y2="1395.44" gradientUnits="userSpaceOnUse"/><linearGradient xlink:href="#a" id="p" x1="1785.81" x2="1606.59" y1="1352.55" y2="1352.55" gradientUnits="userSpaceOnUse"/><path fill="url(#b)" d="m1640.14 2512.8 1328.68-613.87c222.83-102.95 299.9-333.12 171.25-511.43L2372.96 324.237c-128.65-178.316-416.28-239.99-639.11-137.039L405.173 801.07c-222.829 102.95-299.896 333.12-171.246 511.43l767.113 1063.26c128.65 178.32 416.28 239.99 639.1 137.04" opacity=".2"/><path fill="url(#c)" d="m1335.88 2277.89 1234.96-264.8c207.11-44.41 331.18-216.38 275.69-382.11l-330.91-988.265c-55.49-165.738-270.39-265.025-477.5-220.616L803.161 686.902C596.05 731.312 471.98 903.28 527.476 1069.02l330.907 988.26c55.495 165.74 270.387 265.02 477.497 220.61" opacity=".2"/><path fill="url(#d)" d="M1154.28 2036.3h1065.44c178.68 0 324.9-117.01 324.9-260V923.696c0-142.987-146.22-259.997-324.9-259.997H1154.28c-178.677 0-324.895 117.01-324.895 259.997V1776.3c0 142.99 146.218 260 324.895 260" opacity=".3"/><path fill="url(#e)" d="m1073.22 1810.48 857.61 183.9c143.83 30.84 293.06-38.11 331.6-153.21l229.8-686.29c38.54-115.1-47.62-234.52-191.45-265.36l-857.61-183.891c-143.83-30.839-293.06 38.11-331.6 153.205L881.775 1545.13c-38.539 115.09 47.621 234.51 191.445 265.35" opacity=".4"/><path fill="url(#f)" d="m1068.84 1614.72 640.76 296.05c107.46 49.64 246.17 19.9 308.21-66.09l369.94-512.76c62.04-86 24.88-196.99-82.58-246.64l-640.76-296.044c-107.46-49.648-246.17-19.906-308.21 66.088L986.256 1368.08c-62.042 86-24.876 197 82.584 246.64" opacity=".5"/><path fill="url(#g)" d="m1118.07 1456.39 435.98 348.89c73.12 58.51 192.79 58.51 265.9 0l435.99-348.89c73.11-58.51 73.11-154.27 0-212.78l-435.99-348.892c-73.11-58.511-192.78-58.511-265.9 0l-435.98 348.892c-73.12 58.51-73.12 154.27 0 212.78" opacity=".6"/><path fill="url(#h)" d="m1200.36 1337.44 256.91 356.09c43.08 59.71 139.41 80.37 214.03 45.89l444.98-205.59c74.62-34.47 100.43-111.56 57.35-171.27l-256.91-356.09c-43.08-59.715-139.41-80.369-214.03-45.891l-444.98 205.581c-74.62 34.48-100.43 111.56-57.35 171.28" opacity=".7"/><path fill="url(#i)" d="m1298.67 1255.9 110.82 330.97c18.59 55.5 90.56 88.75 159.92 73.88l413.58-88.68c69.37-14.88 110.92-72.47 92.33-127.97l-110.82-330.97c-18.58-55.5-90.55-88.75-159.91-73.88L1391 1127.93c-69.36 14.87-110.91 72.46-92.33 127.97" opacity=".8"/><path fill="url(#j)" d="M1399.78 1207.23v285.53c0 47.89 48.97 87.08 108.81 87.08h356.81c59.84 0 108.81-39.19 108.81-87.08v-285.53c0-47.89-48.97-87.07-108.81-87.07h-356.81c-59.84 0-108.81 39.18-108.81 87.07" opacity=".9"/><path fill="url(#k)" d="m1494.29 1185.51-76.96 229.84c-12.91 38.54 15.95 78.54 64.11 88.87l287.22 61.58c48.16 10.33 98.14-12.76 111.05-51.31l76.96-229.83c12.9-38.55-15.95-78.54-64.12-88.87l-287.21-61.59c-48.17-10.32-98.15 12.77-111.05 51.31"/><path fill="url(#l)" d="m1576.21 1184.34-123.9 171.72c-20.78 28.8-8.33 65.97 27.66 82.6l214.59 99.14c35.99 16.63 82.44 6.67 103.22-22.13l123.89-171.72c20.78-28.8 8.33-65.98-27.66-82.6l-214.59-99.15c-35.98-16.62-82.44-6.66-103.21 22.14"/><path fill="url(#m)" d="m1642.46 1197.53-146 116.84c-24.49 19.6-24.49 51.67 0 71.26l146 116.84c24.49 19.6 64.57 19.6 89.05 0l146.01-116.84c24.49-19.59 24.49-51.66 0-71.26l-146.01-116.84c-24.48-19.6-64.56-19.6-89.05 0"/><path fill="url(#n)" d="m1692.25 1219.59-149.02 68.85c-24.99 11.54-33.63 37.36-19.2 57.36l86.03 119.25c14.43 20 46.69 26.91 71.68 15.37l149.02-68.85c24.99-11.55 33.64-37.36 19.21-57.36l-86.04-119.25c-14.43-20-46.69-26.92-71.68-15.37"/><path fill="url(#o)" d="m1726.38 1245.93-138.51 29.7c-23.23 4.98-37.14 24.27-30.92 42.85l37.11 110.84c6.23 18.59 30.33 29.73 53.56 24.75l138.51-29.7c23.23-4.98 37.14-24.27 30.92-42.86l-37.12-110.84c-6.22-18.59-30.32-29.72-53.55-24.74"/><path fill="url(#p)" d="M1746.75 1273.02h-119.5c-20.04 0-36.44 13.13-36.44 29.16v95.63c0 16.03 16.4 29.16 36.44 29.16h119.5c20.04 0 36.44-13.13 36.44-29.16v-95.63c0-16.03-16.4-29.16-36.44-29.16"/></svg>