<svg xmlns="http://www.w3.org/2000/svg" width="1602" height="1366" fill="none"><path fill="#FAFBFC" stroke="#fff" stroke-dasharray="2 5" d="M135.567 1213.47h133.221v-151.53H135.567zm0-606.105h133.221V455.839H135.567z"/><path fill="#F6F9FA" stroke="#fff" stroke-dasharray="2 5" d="M2.346 607.365h133.221V455.839H2.346z"/><path fill="#FAFBFC" stroke="#fff" stroke-dasharray="2 5" d="M934.894 607.365h133.226V455.839H934.894z"/><path fill="#F6F9FA" stroke="#fff" stroke-dasharray="2 5" d="M535.23 1213.47h133.222v-151.53H535.23z"/><path fill="#FAFBFC" stroke="#fff" stroke-dasharray="2 5" d="M535.23 607.365h133.222V455.839H535.23zM135.567 910.418h133.221V758.893H135.567zm799.327 0h133.226V758.893H934.894zm-399.664 0h133.222V758.893H535.23z"/><path fill="#F6F9FA" stroke="#fff" stroke-dasharray="2 5" d="M535.23 304.312h133.222V152.785H535.23zM135.567 1061.94h133.221V910.418H135.567z"/><path fill="#FAFBFC" stroke="#fff" stroke-dasharray="2 5" d="M2.346 1061.94h133.221V910.418H2.346zm133.221-606.101h133.221V304.313H135.567zm799.327 0h133.226V304.313H934.894zM535.23 1061.94h133.222V910.418H535.23zm0-606.101h133.222V304.313H535.23zm399.664 303.053h133.226V607.365H934.894zM1 152.786h133.221V1.259H1zm534.23 606.106h133.222V607.365H535.23zm0-606.106h133.222V1.259H535.23zm799.33 0h133.22V1.259h-133.22zM268.788 607.365h133.221V455.839H268.788zm799.332 0h133.22V455.839h-133.22zm399.66 606.105H1601v-151.53h-133.22zM668.452 607.365h133.221V455.839H668.452zM268.788 910.418h133.221V758.893H268.788zm799.332 0h133.22V758.893h-133.22zm-399.668 0h133.221V758.893H668.452zm0-606.106h133.221V152.785H668.452zm799.328 0H1601V152.785h-133.22z"/><path fill="#F6F9FA" stroke="#fff" stroke-dasharray="2 5" d="M268.788 455.839h133.221V304.313H268.788zm799.332 0h133.22V304.313h-133.22z"/><path fill="#FAFBFC" stroke="#fff" stroke-dasharray="2 5" d="M668.452 455.839h133.221V304.313H668.452zM268.788 758.892h133.221V607.365H268.788zm799.332 0h133.22V607.365h-133.22zm-399.668 0h133.221V607.365H668.452zm0-606.106h133.221V1.259H668.452zM402.009 1365H535.23v-151.53H402.009zm0-757.635H535.23V455.839H402.009zm799.331 0h133.22V455.839h-133.22zm-399.667 0h133.221V455.839H801.673zM402.009 910.418H535.23V758.893H402.009zm0-606.106H535.23V152.785H402.009zm799.331 0h133.22V152.785h-133.22zM801.673 910.418h133.221V758.893H801.673zm0-606.106h133.221V152.785H801.673zM402.009 1061.94H535.23V910.418H402.009zm0-606.101H535.23V304.313H402.009zm399.664 606.101h133.221V910.418H801.673z"/><path fill="#F6F9FA" stroke="#fff" stroke-dasharray="2 5" d="M801.673 455.839h133.221V304.313H801.673z"/><path fill="#FAFBFC" stroke="#fff" stroke-dasharray="2 5" d="M402.009 758.892H535.23V607.365H402.009zm399.664 0h133.221V607.365H801.673z"/></svg>