<svg width="1602" height="1366" fill="none" xmlns="http://www.w3.org/2000/svg"><path d="M135.567 1213.47h133.221v-151.53H135.567v151.53ZM135.567 607.365h133.221V455.839H135.567v151.526Z" fill="#FAFBFC" stroke="#fff" strokeWidth="2" strokeLinecap="round" stroke-dasharray="2 5"/><path d="M2.346 607.365h133.221V455.839H2.346v151.526Z" fill="#F6F9FA" stroke="#fff" strokeWidth="2" strokeLinecap="round" stroke-dasharray="2 5"/><path d="M934.894 607.365h133.226V455.839H934.894v151.526Z" fill="#FAFBFC" stroke="#fff" strokeWidth="2" strokeLinecap="round" stroke-dasharray="2 5"/><path d="M535.23 1213.47h133.222v-151.53H535.23v151.53Z" fill="#F6F9FA" stroke="#fff" strokeWidth="2" strokeLinecap="round" stroke-dasharray="2 5"/><path d="M535.23 607.365h133.222V455.839H535.23v151.526ZM135.567 910.418h133.221V758.893H135.567v151.525ZM934.894 910.418h133.226V758.893H934.894v151.525ZM535.23 910.418h133.222V758.893H535.23v151.525Z" fill="#FAFBFC" stroke="#fff" strokeWidth="2" strokeLinecap="round" stroke-dasharray="2 5"/><path d="M535.23 304.312h133.222V152.785H535.23v151.527ZM135.567 1061.94h133.221V910.418H135.567v151.522Z" fill="#F6F9FA" stroke="#fff" strokeWidth="2" strokeLinecap="round" stroke-dasharray="2 5"/><path d="M2.346 1061.94h133.221V910.418H2.346v151.522ZM135.567 455.839h133.221V304.313H135.567v151.526ZM934.894 455.839h133.226V304.313H934.894v151.526ZM535.23 1061.94h133.222V910.418H535.23v151.522ZM535.23 455.839h133.222V304.313H535.23v151.526ZM934.894 758.892h133.226V607.365H934.894v151.527ZM1 152.786h133.221V1.259H1v151.527ZM535.23 758.892h133.222V607.365H535.23v151.527ZM535.23 152.786h133.222V1.259H535.23v151.527ZM1334.56 152.786h133.22V1.259h-133.22v151.527ZM268.788 607.365h133.221V455.839H268.788v151.526ZM1068.12 607.365h133.22V455.839h-133.22v151.526ZM1467.78 1213.47H1601v-151.53h-133.22v151.53ZM668.452 607.365h133.221V455.839H668.452v151.526ZM268.788 910.418h133.221V758.893H268.788v151.525ZM1068.12 910.418h133.22V758.893h-133.22v151.525ZM668.452 910.418h133.221V758.893H668.452v151.525ZM668.452 304.312h133.221V152.785H668.452v151.527ZM1467.78 304.312H1601V152.785h-133.22v151.527Z" fill="#FAFBFC" stroke="#fff" strokeWidth="2" strokeLinecap="round" stroke-dasharray="2 5"/><path d="M268.788 455.839h133.221V304.313H268.788v151.526ZM1068.12 455.839h133.22V304.313h-133.22v151.526Z" fill="#F6F9FA" stroke="#fff" strokeWidth="2" strokeLinecap="round" stroke-dasharray="2 5"/><path d="M668.452 455.839h133.221V304.313H668.452v151.526ZM268.788 758.892h133.221V607.365H268.788v151.527ZM1068.12 758.892h133.22V607.365h-133.22v151.527ZM668.452 758.892h133.221V607.365H668.452v151.527ZM668.452 152.786h133.221V1.259H668.452v151.527ZM402.009 1365H535.23v-151.53H402.009V1365ZM402.009 607.365H535.23V455.839H402.009v151.526ZM1201.34 607.365h133.22V455.839h-133.22v151.526ZM801.673 607.365h133.221V455.839H801.673v151.526ZM402.009 910.418H535.23V758.893H402.009v151.525ZM402.009 304.312H535.23V152.785H402.009v151.527ZM1201.34 304.312h133.22V152.785h-133.22v151.527ZM801.673 910.418h133.221V758.893H801.673v151.525ZM801.673 304.312h133.221V152.785H801.673v151.527ZM402.009 1061.94H535.23V910.418H402.009v151.522ZM402.009 455.839H535.23V304.313H402.009v151.526ZM801.673 1061.94h133.221V910.418H801.673v151.522Z" fill="#FAFBFC" stroke="#fff" strokeWidth="2" strokeLinecap="round" stroke-dasharray="2 5"/><path d="M801.673 455.839h133.221V304.313H801.673v151.526Z" fill="#F6F9FA" stroke="#fff" strokeWidth="2" strokeLinecap="round" stroke-dasharray="2 5"/><path d="M402.009 758.892H535.23V607.365H402.009v151.527ZM801.673 758.892h133.221V607.365H801.673v151.527Z" fill="#FAFBFC" stroke="#fff" strokeWidth="2" strokeLinecap="round" stroke-dasharray="2 5"/></svg>