<svg width="48" height="48" viewBox="0 0 48 48" fill="none" xmlns="http://www.w3.org/2000/svg">
<path d="M35.7784 4.57805C37.8178 4.21766 39.7903 5.57319 40.1837 7.60637L40.3448 8.44036C40.7381 10.4737 39.4028 12.4149 37.3634 12.7753L9.66513 17.6699C8.71344 17.8379 7.79297 17.2046 7.60946 16.2558L7.06845 13.4589C6.6752 11.4255 8.01043 9.48535 10.0499 9.12493L35.7784 4.57805Z" fill="#7611F0"/>
<path d="M35.7784 4.57805C37.8178 4.21766 39.7903 5.57319 40.1837 7.60637L40.3448 8.44036C40.7381 10.4737 39.4028 12.4149 37.3634 12.7753L9.66513 17.6699C8.71344 17.8379 7.79297 17.2046 7.60946 16.2558L7.06845 13.4589C6.6752 11.4255 8.01043 9.48535 10.0499 9.12493L35.7784 4.57805Z" fill="url(#paint0_radial_76780_14624)" fill-opacity="0.9"/>
<path d="M35.7784 4.57805C37.8178 4.21766 39.7903 5.57319 40.1837 7.60637L40.3448 8.44036C40.7381 10.4737 39.4028 12.4149 37.3634 12.7753L9.66513 17.6699C8.71344 17.8379 7.79297 17.2046 7.60946 16.2558L7.06845 13.4589C6.6752 11.4255 8.01043 9.48535 10.0499 9.12493L35.7784 4.57805Z" fill="url(#paint1_radial_76780_14624)" fill-opacity="0.6"/>
<path d="M35.7784 4.57805C37.8178 4.21766 39.7903 5.57319 40.1837 7.60637L40.3448 8.44036C40.7381 10.4737 39.4028 12.4149 37.3634 12.7753L9.66513 17.6699C8.71344 17.8379 7.79297 17.2046 7.60946 16.2558L7.06845 13.4589C6.6752 11.4255 8.01043 9.48535 10.0499 9.12493L35.7784 4.57805Z" fill="url(#paint2_radial_76780_14624)" fill-opacity="0.4"/>
<path d="M7.00025 37.502C7.00025 39.9872 9.01497 42.002 11.5002 42.002L36.4984 42.002C38.9837 42.002 40.9984 39.9872 40.9984 37.5019L40.9984 35.8175C40.9984 33.3322 38.9837 31.3175 36.4984 31.3175L11.5002 31.3175C9.01497 31.3175 7.00024 29.3028 7.00024 26.8175L7.00024 25.7956L7.00025 37.502Z" fill="#7611F0"/>
<path d="M7.00025 37.502C7.00025 39.9872 9.01497 42.002 11.5002 42.002L36.4984 42.002C38.9837 42.002 40.9984 39.9872 40.9984 37.5019L40.9984 35.8175C40.9984 33.3322 38.9837 31.3175 36.4984 31.3175L11.5002 31.3175C9.01497 31.3175 7.00024 29.3028 7.00024 26.8175L7.00024 25.7956L7.00025 37.502Z" fill="#A966FF" fill-opacity="0.2"/>
<path d="M7.00025 37.502C7.00025 39.9872 9.01497 42.002 11.5002 42.002L36.4984 42.002C38.9837 42.002 40.9984 39.9872 40.9984 37.5019L40.9984 35.8175C40.9984 33.3322 38.9837 31.3175 36.4984 31.3175L11.5002 31.3175C9.01497 31.3175 7.00024 29.3028 7.00024 26.8175L7.00024 25.7956L7.00025 37.502Z" fill="url(#paint3_linear_76780_14624)" fill-opacity="0.4"/>
<path d="M7.00025 37.502C7.00025 39.9872 9.01497 42.002 11.5002 42.002L36.4984 42.002C38.9837 42.002 40.9984 39.9872 40.9984 37.5019L40.9984 35.8175C40.9984 33.3322 38.9837 31.3175 36.4984 31.3175L11.5002 31.3175C9.01497 31.3175 7.00024 29.3028 7.00024 26.8175L7.00024 25.7956L7.00025 37.502Z" fill="url(#paint4_linear_76780_14624)" fill-opacity="0.15"/>
<path d="M7.00025 37.502C7.00025 39.9872 9.01497 42.002 11.5002 42.002L36.4984 42.002C38.9837 42.002 40.9984 39.9872 40.9984 37.5019L40.9984 35.8175C40.9984 33.3322 38.9837 31.3175 36.4984 31.3175L11.5002 31.3175C9.01497 31.3175 7.00024 29.3028 7.00024 26.8175L7.00024 25.7956L7.00025 37.502Z" fill="url(#paint5_linear_76780_14624)" fill-opacity="0.3"/>
<path d="M7.00025 37.502C7.00025 39.9872 9.01497 42.002 11.5002 42.002L36.4984 42.002C38.9837 42.002 40.9984 39.9872 40.9984 37.5019L40.9984 35.8175C40.9984 33.3322 38.9837 31.3175 36.4984 31.3175L11.5002 31.3175C9.01497 31.3175 7.00024 29.3028 7.00024 26.8175L7.00024 25.7956L7.00025 37.502Z" fill="url(#paint6_linear_76780_14624)" fill-opacity="0.2"/>
<path d="M7.00024 21.2449C7.00024 23.7302 9.01496 25.7449 11.5002 25.7449L36.4984 25.7449C38.9837 25.7449 40.9984 27.7597 40.9984 30.2449L40.9984 31.4297L40.9984 21.0014C40.9984 18.5161 38.9837 16.5014 36.4984 16.5014L11.0002 16.5014C8.79111 16.5014 7.00024 14.7105 7.00024 12.5014L7.00024 11.2715L7.00024 21.2449Z" fill="#BC7FFF"/>
<path d="M7.00024 21.2449C7.00024 23.7302 9.01496 25.7449 11.5002 25.7449L36.4984 25.7449C38.9837 25.7449 40.9984 27.7597 40.9984 30.2449L40.9984 31.4297L40.9984 21.0014C40.9984 18.5161 38.9837 16.5014 36.4984 16.5014L11.0002 16.5014C8.79111 16.5014 7.00024 14.7105 7.00024 12.5014L7.00024 11.2715L7.00024 21.2449Z" fill="url(#paint7_linear_76780_14624)"/>
<path d="M7.00024 21.2449C7.00024 23.7302 9.01496 25.7449 11.5002 25.7449L36.4984 25.7449C38.9837 25.7449 40.9984 27.7597 40.9984 30.2449L40.9984 31.4297L40.9984 21.0014C40.9984 18.5161 38.9837 16.5014 36.4984 16.5014L11.0002 16.5014C8.79111 16.5014 7.00024 14.7105 7.00024 12.5014L7.00024 11.2715L7.00024 21.2449Z" fill="url(#paint8_linear_76780_14624)" fill-opacity="0.8"/>
<path d="M7.00024 21.2449C7.00024 23.7302 9.01496 25.7449 11.5002 25.7449L36.4984 25.7449C38.9837 25.7449 40.9984 27.7597 40.9984 30.2449L40.9984 31.4297L40.9984 21.0014C40.9984 18.5161 38.9837 16.5014 36.4984 16.5014L11.0002 16.5014C8.79111 16.5014 7.00024 14.7105 7.00024 12.5014L7.00024 11.2715L7.00024 21.2449Z" fill="url(#paint9_radial_76780_14624)"/>
<path d="M7.00024 28.9961C7.00024 31.4814 9.01496 33.4961 11.5002 33.4961L36.7992 33.4961C39.1184 33.4961 40.9984 35.3761 40.9984 37.6953C40.9984 40.4696 40.9984 34.1821 40.9984 29.5016C40.9984 27.0163 38.9837 25.0022 36.4984 25.0022L11.5002 25.0022C9.01496 25.0022 7.00024 22.9875 7.00024 20.5022L7.00024 19.4897L7.00024 28.9961Z" fill="#974CFF"/>
<path d="M7.00024 28.9961C7.00024 31.4814 9.01496 33.4961 11.5002 33.4961L36.7992 33.4961C39.1184 33.4961 40.9984 35.3761 40.9984 37.6953C40.9984 40.4696 40.9984 34.1821 40.9984 29.5016C40.9984 27.0163 38.9837 25.0022 36.4984 25.0022L11.5002 25.0022C9.01496 25.0022 7.00024 22.9875 7.00024 20.5022L7.00024 19.4897L7.00024 28.9961Z" fill="#A966FF" fill-opacity="0.35"/>
<path d="M7.00024 28.9961C7.00024 31.4814 9.01496 33.4961 11.5002 33.4961L36.7992 33.4961C39.1184 33.4961 40.9984 35.3761 40.9984 37.6953C40.9984 40.4696 40.9984 34.1821 40.9984 29.5016C40.9984 27.0163 38.9837 25.0022 36.4984 25.0022L11.5002 25.0022C9.01496 25.0022 7.00024 22.9875 7.00024 20.5022L7.00024 19.4897L7.00024 28.9961Z" fill="url(#paint10_linear_76780_14624)" fill-opacity="0.4"/>
<path d="M7.00024 28.9961C7.00024 31.4814 9.01496 33.4961 11.5002 33.4961L36.7992 33.4961C39.1184 33.4961 40.9984 35.3761 40.9984 37.6953C40.9984 40.4696 40.9984 34.1821 40.9984 29.5016C40.9984 27.0163 38.9837 25.0022 36.4984 25.0022L11.5002 25.0022C9.01496 25.0022 7.00024 22.9875 7.00024 20.5022L7.00024 19.4897L7.00024 28.9961Z" fill="url(#paint11_linear_76780_14624)" fill-opacity="0.4"/>
<path d="M7.00024 28.9961C7.00024 31.4814 9.01496 33.4961 11.5002 33.4961L36.7992 33.4961C39.1184 33.4961 40.9984 35.3761 40.9984 37.6953C40.9984 40.4696 40.9984 34.1821 40.9984 29.5016C40.9984 27.0163 38.9837 25.0022 36.4984 25.0022L11.5002 25.0022C9.01496 25.0022 7.00024 22.9875 7.00024 20.5022L7.00024 19.4897L7.00024 28.9961Z" fill="url(#paint12_linear_76780_14624)" fill-opacity="0.6"/>
<defs>
<radialGradient id="paint0_radial_76780_14624" cx="0" cy="0" r="1" gradientUnits="userSpaceOnUse" gradientTransform="translate(24.3713 -10.6714) rotate(152.655) scale(31.2869 36.4676)">
<stop offset="0.625" stop-color="#974CFF"/>
<stop offset="1" stop-color="#5000B0"/>
</radialGradient>
<radialGradient id="paint1_radial_76780_14624" cx="0" cy="0" r="1" gradientUnits="userSpaceOnUse" gradientTransform="translate(41.4402 1.89859) rotate(156.462) scale(27.6046 61.0177)">
<stop offset="0.146784" stop-color="#DE91FF"/>
<stop offset="0.677885" stop-color="#D373FC" stop-opacity="0"/>
</radialGradient>
<radialGradient id="paint2_radial_76780_14624" cx="0" cy="0" r="1" gradientUnits="userSpaceOnUse" gradientTransform="translate(27.1987 -3.19625) rotate(127.154) scale(17.4557 44.1887)">
<stop stop-color="#FFC7A3"/>
<stop offset="0.830508" stop-color="#DE67FD" stop-opacity="0"/>
</radialGradient>
<linearGradient id="paint3_linear_76780_14624" x1="28.816" y1="33.4523" x2="27.8369" y2="39.2557" gradientUnits="userSpaceOnUse">
<stop stop-color="#330072"/>
<stop offset="1" stop-color="#7611F0" stop-opacity="0"/>
</linearGradient>
<linearGradient id="paint4_linear_76780_14624" x1="14.6299" y1="33.4631" x2="14.6299" y2="42.0412" gradientUnits="userSpaceOnUse">
<stop stop-color="#9136F2" stop-opacity="0"/>
<stop offset="0.836047" stop-color="#B76AFF"/>
</linearGradient>
<linearGradient id="paint5_linear_76780_14624" x1="16.2721" y1="32.9036" x2="6.99878" y2="32.9875" gradientUnits="userSpaceOnUse">
<stop stop-color="#9136F2" stop-opacity="0"/>
<stop offset="0.836047" stop-color="#B76AFF"/>
</linearGradient>
<linearGradient id="paint6_linear_76780_14624" x1="30.7617" y1="32.9818" x2="44.6615" y2="44.4788" gradientUnits="userSpaceOnUse">
<stop stop-color="#9136F2" stop-opacity="0"/>
<stop offset="0.836047" stop-color="#B76AFF"/>
</linearGradient>
<linearGradient id="paint7_linear_76780_14624" x1="16.2721" y1="19.8911" x2="6.99874" y2="19.8911" gradientUnits="userSpaceOnUse">
<stop stop-color="#BC80FF" stop-opacity="0"/>
<stop offset="0.836047" stop-color="#ECB4FF"/>
</linearGradient>
<linearGradient id="paint8_linear_76780_14624" x1="29.7347" y1="19.8911" x2="40.9984" y2="19.8911" gradientUnits="userSpaceOnUse">
<stop stop-color="#BC7FFF" stop-opacity="0"/>
<stop offset="0.836047" stop-color="#ECB4FF"/>
</linearGradient>
<radialGradient id="paint9_radial_76780_14624" cx="0" cy="0" r="1" gradientUnits="userSpaceOnUse" gradientTransform="translate(35.094 -2.06238) rotate(122.838) scale(20.4598 40.8374)">
<stop stop-color="#FFC7A3"/>
<stop offset="0.830508" stop-color="#DE67FD" stop-opacity="0"/>
</radialGradient>
<linearGradient id="paint10_linear_76780_14624" x1="27.2139" y1="20.0575" x2="26.7814" y2="30.523" gradientUnits="userSpaceOnUse">
<stop stop-color="#6200D5"/>
<stop offset="1" stop-color="#3E008D" stop-opacity="0"/>
</linearGradient>
<linearGradient id="paint11_linear_76780_14624" x1="31.7277" y1="28.459" x2="41.0011" y2="28.459" gradientUnits="userSpaceOnUse">
<stop stop-color="#9B54FD" stop-opacity="0"/>
<stop offset="0.836047" stop-color="#ECB4FF"/>
</linearGradient>
<linearGradient id="paint12_linear_76780_14624" x1="16.2721" y1="28.459" x2="6.99873" y2="28.459" gradientUnits="userSpaceOnUse">
<stop stop-color="#944EF6" stop-opacity="0"/>
<stop offset="0.836047" stop-color="#ECB4FF"/>
</linearGradient>
</defs>
</svg>
