<svg width="96" height="96" viewBox="0 0 96 96" fill="none" xmlns="http://www.w3.org/2000/svg">
<g clip-path="url(#clip0_84_430)">
<g clip-path="url(#clip1_84_430)">
<path d="M50.4542 12.4478C31.9275 12.4478 16.8999 30.8113 16.8999 44.4229V86.3461C16.8999 90.0906 20.8047 93.119 25.6139 93.119H75.2861C80.1037 93.119 84.0001 90.084 84.0001 86.3461V37.0891C84.0001 23.4776 68.9809 12.4478 50.4542 12.4478Z" fill="url(#paint0_linear_84_430)"/>
<path d="M50.4542 12.4478C31.9275 12.4478 16.8999 30.8113 16.8999 44.4229V86.3461C16.8999 90.0906 20.8047 93.119 25.6139 93.119H75.2861C80.1037 93.119 84.0001 90.084 84.0001 86.3461V37.0891C84.0001 23.4776 68.9809 12.4478 50.4542 12.4478Z" fill="url(#paint1_linear_84_430)" fill-opacity="0.6"/>
<path d="M50.4542 12.4478C31.9275 12.4478 16.8999 30.8113 16.8999 44.4229V86.3461C16.8999 90.0906 20.8047 93.119 25.6139 93.119H75.2861C80.1037 93.119 84.0001 90.084 84.0001 86.3461V37.0891C84.0001 23.4776 68.9809 12.4478 50.4542 12.4478Z" fill="url(#paint2_radial_84_430)" fill-opacity="0.5"/>
<path d="M42.0649 7.61354C28.1714 15.6294 16.9047 30.2449 16.9047 47.3401L16.8999 86.7313C16.8999 93.119 24.8111 94.1837 28.4689 92.0544L60.6895 72.8718C64.2983 70.7898 67.225 66.2424 67.225 62.7124V32.4353C67.225 13.2719 55.9584 -0.397553 42.0649 7.61354Z" fill="url(#paint3_radial_84_430)"/>
<path d="M42.0649 7.61354C28.1714 15.6294 16.9047 30.2449 16.9047 47.3401L16.8999 86.7313C16.8999 93.119 24.8111 94.1837 28.4689 92.0544L60.6895 72.8718C64.2983 70.7898 67.225 66.2424 67.225 62.7124V32.4353C67.225 13.2719 55.9584 -0.397553 42.0649 7.61354Z" fill="url(#paint4_radial_84_430)" fill-opacity="0.25"/>
<path d="M42.0649 7.61354C28.1714 15.6294 16.9047 30.2449 16.9047 47.3401L16.8999 86.7313C16.8999 93.119 24.8111 94.1837 28.4689 92.0544L60.6895 72.8718C64.2983 70.7898 67.225 66.2424 67.225 62.7124V32.4353C67.225 13.2719 55.9584 -0.397553 42.0649 7.61354Z" fill="url(#paint5_radial_84_430)" fill-opacity="0.25"/>
<path d="M42.0649 7.61354C28.1714 15.6294 16.9047 30.2449 16.9047 47.3401L16.8999 86.7313C16.8999 93.119 24.8111 94.1837 28.4689 92.0544L60.6895 72.8718C64.2983 70.7898 67.225 66.2424 67.225 62.7124V32.4353C67.225 13.2719 55.9584 -0.397553 42.0649 7.61354Z" fill="url(#paint6_radial_84_430)" fill-opacity="0.25"/>
<path d="M42.0649 7.61354C28.1714 15.6294 16.9047 30.2449 16.9047 47.3401L16.8999 86.7313C16.8999 93.119 24.8111 94.1837 28.4689 92.0544L60.6895 72.8718C64.2983 70.7898 67.225 66.2424 67.225 62.7124V32.4353C67.225 13.2719 55.9584 -0.397553 42.0649 7.61354Z" fill="url(#paint7_linear_84_430)" fill-opacity="0.6"/>
<path d="M32.4476 3.65882C21.9186 7.542 12.0053 24.99 12.0053 44.002L12 61.0396C12 65.2258 15.1748 66.6174 19.0896 64.1484L36.5713 53.3864C41.5211 50.3393 44.5633 44.7574 44.5633 38.7224V21.2139C44.5633 8.18931 39.5788 1.02875 32.4476 3.65882Z" fill="url(#paint8_linear_84_430)"/>
</g>
</g>
<defs>
<linearGradient id="paint0_linear_84_430" x1="55.5763" y1="66.7305" x2="81.918" y2="88.7778" gradientUnits="userSpaceOnUse">
<stop stop-color="#224F87"/>
<stop offset="1" stop-color="#0055C6"/>
</linearGradient>
<linearGradient id="paint1_linear_84_430" x1="82.9443" y1="52.7834" x2="71.5182" y2="54.2164" gradientUnits="userSpaceOnUse">
<stop stop-color="#0059C5"/>
<stop offset="1" stop-color="#0059C5" stop-opacity="0"/>
</linearGradient>
<radialGradient id="paint2_radial_84_430" cx="0" cy="0" r="1" gradientUnits="userSpaceOnUse" gradientTransform="translate(36.4453 50.628) rotate(51.4758) scale(40.3141 36.3696)">
<stop stop-color="#041642"/>
<stop offset="1" stop-color="#041642" stop-opacity="0"/>
</radialGradient>
<radialGradient id="paint3_radial_84_430" cx="0" cy="0" r="1" gradientUnits="userSpaceOnUse" gradientTransform="translate(50.6607 5.27905) rotate(101.468) scale(52.7905 58.7614)">
<stop stop-color="#66DFFF"/>
<stop offset="1" stop-color="#0296E6"/>
</radialGradient>
<radialGradient id="paint4_radial_84_430" cx="0" cy="0" r="1" gradientUnits="userSpaceOnUse" gradientTransform="translate(28.474 31.3316) scale(25.9066 40.722)">
<stop/>
<stop offset="1" stop-opacity="0"/>
</radialGradient>
<radialGradient id="paint5_radial_84_430" cx="0" cy="0" r="1" gradientUnits="userSpaceOnUse" gradientTransform="translate(38.7038 30.6662) rotate(-3.01258) scale(13.5717 37.6157)">
<stop/>
<stop offset="1" stop-opacity="0"/>
</radialGradient>
<radialGradient id="paint6_radial_84_430" cx="0" cy="0" r="1" gradientUnits="userSpaceOnUse" gradientTransform="translate(20.1042 61.8066) rotate(63.4736) scale(13.3863 29.831)">
<stop/>
<stop offset="1" stop-opacity="0"/>
</radialGradient>
<linearGradient id="paint7_linear_84_430" x1="43.2209" y1="83.0991" x2="27.1109" y2="61.6996" gradientUnits="userSpaceOnUse">
<stop stop-color="#0086E2"/>
<stop offset="1" stop-color="#0086E2" stop-opacity="0"/>
</linearGradient>
<linearGradient id="paint8_linear_84_430" x1="-7.66242" y1="25.7423" x2="10.5321" y2="56.9523" gradientUnits="userSpaceOnUse">
<stop stop-color="#CDFAFF"/>
<stop offset="1" stop-color="#45DDFB"/>
</linearGradient>
<clipPath id="clip0_84_430">
<rect width="96" height="96" fill="white"/>
</clipPath>
<clipPath id="clip1_84_430">
<rect width="96" height="96" fill="white"/>
</clipPath>
</defs>
</svg>
