<svg width="72" height="72" viewBox="0 0 72 72" fill="none" xmlns="http://www.w3.org/2000/svg">
<path d="M36.329 17.2188C36.7653 17.2497 37.19 17.3729 37.5751 17.5801L37.7636 17.6904L37.7714 17.6953C38.2486 18.0228 38.6224 18.4796 38.8495 19.0117L42.7714 27.8232L42.7753 27.832H42.7744C42.8519 28.0253 42.9826 28.1923 43.1503 28.3154L43.288 28.4004C43.4316 28.4758 43.5893 28.5222 43.7519 28.5352H43.7529L53.5341 29.3496L53.537 29.3506C54.0503 29.4005 54.5422 29.5785 54.9667 29.8672L55.1445 29.998L55.1513 30.0029V30.0039C55.543 30.3372 55.8504 30.7568 56.0497 31.2285L56.1288 31.4346L56.1318 31.4424L56.1337 31.4502C56.2887 32.0196 56.2887 32.62 56.1337 33.1895L56.1318 33.1982L55.8925 33.124L56.1308 33.1982C55.9555 33.7599 55.6226 34.259 55.1718 34.6367L55.1708 34.6377L47.8632 40.7119C47.6985 40.8631 47.5722 41.0518 47.4951 41.2617C47.4486 41.4196 47.4374 41.5854 47.4609 41.7471L47.497 41.9082L47.5009 41.9209H47.4999L49.7031 51.085V51.0859C49.8379 51.6565 49.8021 52.2541 49.6015 52.8047C49.4009 53.3553 49.0432 53.8345 48.5732 54.1846L48.5742 54.1855C48.1072 54.535 47.5463 54.7354 46.9638 54.7627L46.9648 54.7637C46.3787 54.8027 45.7941 54.6688 45.2831 54.3789H45.2822L36.581 49.4004L36.5742 49.3965C36.4015 49.2901 36.2024 49.2334 35.9999 49.2334C35.7975 49.2334 35.5984 49.2901 35.4257 49.3965L35.4179 49.4014L26.6064 54.3799L26.6054 54.3789C26.2282 54.6012 25.8069 54.7378 25.371 54.7773C24.9334 54.8171 24.4925 54.7585 24.08 54.6064C23.6674 54.4543 23.2934 54.2118 22.9863 53.8975C22.6794 53.5833 22.4461 53.2047 22.3036 52.7891L22.3007 52.7803C22.1341 52.2277 22.1329 51.6382 22.2968 51.085L24.4999 41.9209L24.5029 41.9082L24.539 41.7471C24.5625 41.5853 24.5504 41.4197 24.5038 41.2617C24.4266 41.0517 24.3006 40.8631 24.1357 40.7119L16.829 34.6377V34.6367C16.3716 34.254 16.0369 33.7452 15.8681 33.1729L15.8671 33.1689C15.7115 32.6064 15.7115 32.0118 15.8671 31.4492L15.8691 31.4404L15.9443 31.2305C16.1369 30.7478 16.452 30.3219 16.8603 29.9961C17.3268 29.6238 17.8935 29.3984 18.4882 29.3496L28.2695 28.5352H28.2704C28.4869 28.5178 28.6948 28.4414 28.872 28.3154C29.0443 28.1841 29.1824 28.0133 29.2753 27.8174L33.371 19.0088C33.613 18.4809 33.993 18.0277 34.4697 17.6963L34.4775 17.6914C34.9646 17.3784 35.5313 17.2115 36.1103 17.2109L36.329 17.2188Z" fill="url(#paint0_linear_4732_576)" stroke="white" stroke-width="0.5"/>
<circle cx="36" cy="37.1028" r="5.07593" fill="white"/>
<path d="M35.25 5.61719V3.06445C35.25 2.65024 35.5858 2.31445 36 2.31445C36.4142 2.31445 36.75 2.65024 36.75 3.06445V5.61719C36.75 6.0314 36.4142 6.36719 36 6.36719C35.5858 6.36719 35.25 6.0314 35.25 5.61719Z" fill="url(#paint1_linear_4732_576)"/>
<path d="M35.25 68.9356V66.3829C35.25 65.9687 35.5858 65.6329 36 65.6329C36.4142 65.6329 36.75 65.9687 36.75 66.3829V68.9356C36.75 69.3498 36.4142 69.6856 36 69.6856C35.5858 69.6856 35.25 69.3498 35.25 68.9356Z" fill="url(#paint2_linear_4732_576)"/>
<path d="M68.9354 35.2502C69.3496 35.2502 69.6854 35.586 69.6854 36.0002C69.6854 36.4145 69.3496 36.7502 68.9354 36.7502H66.3826C65.9684 36.7502 65.6326 36.4145 65.6326 36.0002C65.6326 35.586 65.9684 35.2502 66.3826 35.2502H68.9354Z" fill="url(#paint3_linear_4732_576)"/>
<path d="M5.61694 35.2502C6.03116 35.2502 6.36694 35.586 6.36694 36.0002C6.36694 36.4145 6.03116 36.7502 5.61694 36.7502H3.06421C2.65 36.7502 2.31421 36.4145 2.31421 36.0002C2.31421 35.586 2.65 35.2502 3.06421 35.2502H5.61694Z" fill="url(#paint4_linear_4732_576)"/>
<path d="M58.7597 12.1801C59.0525 11.8872 59.5273 11.8872 59.8202 12.1801C60.1131 12.473 60.1131 12.9477 59.8202 13.2406L58.0126 15.0483C57.7197 15.3412 57.2449 15.3412 56.952 15.0483C56.6592 14.7554 56.6591 14.2806 56.952 13.9877L58.7597 12.1801Z" fill="url(#paint5_linear_4732_576)"/>
<path d="M13.9874 56.9522C14.2803 56.6593 14.7551 56.6593 15.048 56.9522C15.3408 57.2451 15.3408 57.7198 15.048 58.0127L13.2403 59.8204C12.9474 60.1132 12.4727 60.1132 12.1798 59.8204C11.8869 59.5275 11.8869 59.0527 12.1798 58.7598L13.9874 56.9522Z" fill="url(#paint6_linear_4732_576)"/>
<path d="M12.1798 12.1801C12.4727 11.8872 12.9474 11.8872 13.2403 12.1801L15.048 13.9877C15.3408 14.2806 15.3408 14.7554 15.048 15.0483C14.7551 15.3412 14.2803 15.3412 13.9874 15.0483L12.1798 13.2406C11.8869 12.9477 11.8869 12.473 12.1798 12.1801Z" fill="url(#paint7_linear_4732_576)"/>
<path d="M56.952 56.9522C57.2449 56.6593 57.7197 56.6593 58.0126 56.9522L59.8202 58.7598C60.1131 59.0527 60.1131 59.5275 59.8202 59.8204C59.5273 60.1132 59.0525 60.1132 58.7597 59.8204L56.952 58.0127C56.6591 57.7198 56.6591 57.2451 56.952 56.9522Z" fill="url(#paint8_linear_4732_576)"/>
<path d="M23.1115 4.87838C23.4942 4.72045 23.9328 4.90296 24.091 5.28561L25.0656 7.644C25.2238 8.02678 25.0421 8.46522 24.6593 8.6235C24.2765 8.78175 23.8381 8.60004 23.6798 8.21725L22.7042 5.85787C22.5463 5.47518 22.7288 5.03657 23.1115 4.87838Z" fill="url(#paint9_linear_4732_576)"/>
<path d="M47.341 63.3765C47.7237 63.2185 48.1623 63.401 48.3205 63.7837L49.2951 66.1421C49.4533 66.5249 49.2716 66.9633 48.8888 67.1216C48.506 67.2798 48.0676 67.0981 47.9093 66.7153L46.9338 64.3559C46.7758 63.9733 46.9583 63.5347 47.341 63.3765Z" fill="url(#paint10_linear_4732_576)"/>
<path d="M66.1417 22.7044C66.5245 22.5461 66.963 22.7288 67.1212 23.1116C67.2793 23.4944 67.0977 23.9329 66.715 24.0911L64.3556 25.0657C63.9728 25.2238 63.5343 25.0422 63.3761 24.6595C63.218 24.2767 63.4006 23.8382 63.7833 23.68L66.1417 22.7044Z" fill="url(#paint11_linear_4732_576)"/>
<path d="M7.64367 46.934C8.02646 46.7757 8.4649 46.9584 8.62316 47.3412C8.78128 47.724 8.59964 48.1625 8.21691 48.3207L5.85753 49.2953C5.47479 49.4534 5.03627 49.2718 4.87804 48.8891C4.71994 48.5063 4.90255 48.0678 5.28527 47.9096L7.64367 46.934Z" fill="url(#paint12_linear_4732_576)"/>
<path d="M47.9093 5.28561C48.0676 4.90288 48.5061 4.72027 48.8888 4.87838C49.2716 5.03661 49.4532 5.47513 49.2951 5.85787L48.3205 8.21725C48.1622 8.59997 47.7237 8.78161 47.341 8.6235C46.9582 8.46524 46.7755 8.02679 46.9338 7.644L47.9093 5.28561Z" fill="url(#paint13_linear_4732_576)"/>
<path d="M23.6798 63.7837C23.838 63.401 24.2766 63.2184 24.6593 63.3765C25.042 63.5347 25.2237 63.9732 25.0656 64.3559L24.091 66.7153C23.9327 67.0981 23.4942 67.2797 23.1115 67.1216C22.7287 66.9633 22.546 66.5249 22.7042 66.1421L23.6798 63.7837Z" fill="url(#paint14_linear_4732_576)"/>
<path d="M4.87804 23.1116C5.03623 22.729 5.47485 22.5465 5.85753 22.7044L8.21691 23.68C8.5997 23.8382 8.78141 24.2767 8.62316 24.6595C8.46489 25.0422 8.02644 25.224 7.64367 25.0657L5.28527 24.0911C4.90262 23.9329 4.72011 23.4943 4.87804 23.1116Z" fill="url(#paint15_linear_4732_576)"/>
<path d="M63.3761 47.3412C63.5343 46.9586 63.9729 46.7761 64.3556 46.934L66.715 47.9096C67.0977 48.0678 67.2795 48.5063 67.1212 48.8891C66.9629 49.2718 66.5245 49.4536 66.1417 49.2953L63.7833 48.3207C63.4007 48.1625 63.2182 47.7239 63.3761 47.3412Z" fill="url(#paint16_linear_4732_576)"/>
<defs>
<linearGradient id="paint0_linear_4732_576" x1="19.7788" y1="-4.21863" x2="104.025" y2="90.3966" gradientUnits="userSpaceOnUse">
<stop offset="0.183745" stop-color="#F74644"/>
<stop offset="0.464072" stop-color="#C83ECA"/>
<stop offset="0.668279" stop-color="#954DCE"/>
</linearGradient>
<linearGradient id="paint1_linear_4732_576" x1="8.67893" y1="-37.0772" x2="162.661" y2="123.226" gradientUnits="userSpaceOnUse">
<stop offset="0.183745" stop-color="#F74644"/>
<stop offset="0.464072" stop-color="#C83ECA"/>
<stop offset="0.668279" stop-color="#954DCE"/>
</linearGradient>
<linearGradient id="paint2_linear_4732_576" x1="8.67893" y1="-37.0772" x2="162.661" y2="123.226" gradientUnits="userSpaceOnUse">
<stop offset="0.183745" stop-color="#F74644"/>
<stop offset="0.464072" stop-color="#C83ECA"/>
<stop offset="0.668279" stop-color="#954DCE"/>
</linearGradient>
<linearGradient id="paint3_linear_4732_576" x1="8.67893" y1="-37.0772" x2="162.661" y2="123.226" gradientUnits="userSpaceOnUse">
<stop offset="0.183745" stop-color="#F74644"/>
<stop offset="0.464072" stop-color="#C83ECA"/>
<stop offset="0.668279" stop-color="#954DCE"/>
</linearGradient>
<linearGradient id="paint4_linear_4732_576" x1="8.67893" y1="-37.0772" x2="162.661" y2="123.226" gradientUnits="userSpaceOnUse">
<stop offset="0.183745" stop-color="#F74644"/>
<stop offset="0.464072" stop-color="#C83ECA"/>
<stop offset="0.668279" stop-color="#954DCE"/>
</linearGradient>
<linearGradient id="paint5_linear_4732_576" x1="8.67893" y1="-37.0772" x2="162.661" y2="123.226" gradientUnits="userSpaceOnUse">
<stop offset="0.183745" stop-color="#F74644"/>
<stop offset="0.464072" stop-color="#C83ECA"/>
<stop offset="0.668279" stop-color="#954DCE"/>
</linearGradient>
<linearGradient id="paint6_linear_4732_576" x1="8.67893" y1="-37.0772" x2="162.661" y2="123.226" gradientUnits="userSpaceOnUse">
<stop offset="0.183745" stop-color="#F74644"/>
<stop offset="0.464072" stop-color="#C83ECA"/>
<stop offset="0.668279" stop-color="#954DCE"/>
</linearGradient>
<linearGradient id="paint7_linear_4732_576" x1="8.67893" y1="-37.0772" x2="162.661" y2="123.226" gradientUnits="userSpaceOnUse">
<stop offset="0.183745" stop-color="#F74644"/>
<stop offset="0.464072" stop-color="#C83ECA"/>
<stop offset="0.668279" stop-color="#954DCE"/>
</linearGradient>
<linearGradient id="paint8_linear_4732_576" x1="8.67893" y1="-37.0772" x2="162.661" y2="123.226" gradientUnits="userSpaceOnUse">
<stop offset="0.183745" stop-color="#F74644"/>
<stop offset="0.464072" stop-color="#C83ECA"/>
<stop offset="0.668279" stop-color="#954DCE"/>
</linearGradient>
<linearGradient id="paint9_linear_4732_576" x1="8.67893" y1="-37.0772" x2="162.661" y2="123.226" gradientUnits="userSpaceOnUse">
<stop offset="0.183745" stop-color="#F74644"/>
<stop offset="0.464072" stop-color="#C83ECA"/>
<stop offset="0.668279" stop-color="#954DCE"/>
</linearGradient>
<linearGradient id="paint10_linear_4732_576" x1="8.67893" y1="-37.0772" x2="162.661" y2="123.226" gradientUnits="userSpaceOnUse">
<stop offset="0.183745" stop-color="#F74644"/>
<stop offset="0.464072" stop-color="#C83ECA"/>
<stop offset="0.668279" stop-color="#954DCE"/>
</linearGradient>
<linearGradient id="paint11_linear_4732_576" x1="8.67893" y1="-37.0772" x2="162.661" y2="123.226" gradientUnits="userSpaceOnUse">
<stop offset="0.183745" stop-color="#F74644"/>
<stop offset="0.464072" stop-color="#C83ECA"/>
<stop offset="0.668279" stop-color="#954DCE"/>
</linearGradient>
<linearGradient id="paint12_linear_4732_576" x1="8.67893" y1="-37.0772" x2="162.661" y2="123.226" gradientUnits="userSpaceOnUse">
<stop offset="0.183745" stop-color="#F74644"/>
<stop offset="0.464072" stop-color="#C83ECA"/>
<stop offset="0.668279" stop-color="#954DCE"/>
</linearGradient>
<linearGradient id="paint13_linear_4732_576" x1="8.67893" y1="-37.0772" x2="162.661" y2="123.226" gradientUnits="userSpaceOnUse">
<stop offset="0.183745" stop-color="#F74644"/>
<stop offset="0.464072" stop-color="#C83ECA"/>
<stop offset="0.668279" stop-color="#954DCE"/>
</linearGradient>
<linearGradient id="paint14_linear_4732_576" x1="8.67893" y1="-37.0772" x2="162.661" y2="123.226" gradientUnits="userSpaceOnUse">
<stop offset="0.183745" stop-color="#F74644"/>
<stop offset="0.464072" stop-color="#C83ECA"/>
<stop offset="0.668279" stop-color="#954DCE"/>
</linearGradient>
<linearGradient id="paint15_linear_4732_576" x1="8.67893" y1="-37.0772" x2="162.661" y2="123.226" gradientUnits="userSpaceOnUse">
<stop offset="0.183745" stop-color="#F74644"/>
<stop offset="0.464072" stop-color="#C83ECA"/>
<stop offset="0.668279" stop-color="#954DCE"/>
</linearGradient>
<linearGradient id="paint16_linear_4732_576" x1="8.67893" y1="-37.0772" x2="162.661" y2="123.226" gradientUnits="userSpaceOnUse">
<stop offset="0.183745" stop-color="#F74644"/>
<stop offset="0.464072" stop-color="#C83ECA"/>
<stop offset="0.668279" stop-color="#954DCE"/>
</linearGradient>
</defs>
</svg>
