<svg width="33" height="32" viewBox="0 0 33 32" fill="none" xmlns="http://www.w3.org/2000/svg">
<g clip-path="url(#clip0_167_25563)">
<path d="M6.9541 24.9459C7.64388 25.3761 8.79055 25.8543 10.003 25.8543C11.107 25.8543 12.1328 25.5343 12.9825 24.9886L12.9861 24.9868L16.195 22.9814V30.2223C15.6774 30.2231 15.17 30.079 14.7301 29.8063L6.9541 24.9459Z" fill="#225086"/>
<path d="M14.1562 2.67917L0.822862 17.7192C-0.206472 18.8818 0.0619727 20.6383 1.39708 21.4721L6.95442 24.9458C7.6442 25.3761 8.79086 25.8543 10.0033 25.8543C11.1073 25.8543 12.1331 25.5343 12.9829 24.9885L12.9864 24.9867L16.1953 22.9814L8.43708 18.1316L16.1971 9.37783V1.77783C15.4433 1.77783 14.6895 2.07828 14.1562 2.67917Z" fill="#66DDFF"/>
<path d="M8.4375 18.1317L8.52994 18.1886L16.1957 22.9815H16.1975V9.37971L16.1957 9.37793L8.4375 18.1317Z" fill="#CBF8FF"/>
<path d="M30.9937 21.4722C32.3288 20.6384 32.5973 18.8819 31.5679 17.7193L22.8195 7.85083C22.0886 7.50977 21.2918 7.33317 20.4853 7.3335C18.8408 7.3335 17.3706 8.04283 16.3928 9.1575L16.199 9.37616L23.9573 18.1299L16.1973 22.9797V30.2206C16.7075 30.2206 17.2159 30.0819 17.6604 29.8046L30.9937 21.4704V21.4722Z" fill="#074793"/>
<path d="M16.1971 1.77783V9.37783L16.3909 9.15916C16.9039 8.58135 17.5343 8.11972 18.2401 7.80516C18.9459 7.49061 19.7106 7.33037 20.4833 7.33517C21.3224 7.33517 22.1118 7.52539 22.8175 7.8525L18.2326 2.68094C17.9763 2.39488 17.6622 2.16658 17.3109 2.01118C16.9597 1.85579 16.5794 1.77685 16.1953 1.77961L16.1971 1.77783Z" fill="#0294E4"/>
<path d="M23.9555 18.1314L16.1973 9.37939V22.9794L23.9555 18.1314Z" fill="#96BCC2"/>
</g>
<defs>
<clipPath id="clip0_167_25563">
<rect width="32" height="32" fill="white" transform="translate(0.195312)"/>
</clipPath>
</defs>
</svg>
