<svg width="48" height="48" viewBox="0 0 48 48" fill="none" xmlns="http://www.w3.org/2000/svg">
<g clip-path="url(#clip0_122_779)">
<path d="M26.0486 34.2422H8.64062V42.4342H26.0486C28.3014 42.4342 30.1446 40.591 30.1446 38.3382C30.1446 36.0854 28.3014 34.2422 26.0486 34.2422Z" fill="#103F91"/>
<path d="M42.432 11.7148H24V19.9068H42.432C44.6848 19.9068 46.528 18.0636 46.528 15.8108C46.528 13.558 44.6848 11.7148 42.432 11.7148Z" fill="#185ABD"/>
<path d="M34.24 22.9766H16.832V31.1686H34.24C36.4928 31.1686 38.336 29.3254 38.336 27.0726C38.336 24.8198 36.4928 22.9766 34.24 22.9766Z" fill="#185ABD"/>
<mask id="mask0_122_779" style="mask-type:luminance" maskUnits="userSpaceOnUse" x="8" y="11" width="39" height="32">
<path d="M30.1446 38.3388C30.1446 40.5916 28.3014 42.4348 26.0486 42.4348H8.64062V34.2428H26.0486C28.3014 34.2428 30.1446 36.086 30.1446 38.3388ZM42.4326 11.7148H24.0006V19.9068H42.4326C44.6854 19.9068 46.5286 18.0636 46.5286 15.8108C46.5286 13.558 44.6854 11.7148 42.4326 11.7148ZM34.2406 22.9788H16.8326V31.1708H34.2406C36.4934 31.1708 38.3366 29.3276 38.3366 27.0748C38.3366 24.822 36.4934 22.9788 34.2406 22.9788Z" fill="white"/>
</mask>
<g mask="url(#mask0_122_779)">
<g opacity="0.48">
<path d="M1.93395 47.0444C1.72915 47.0444 1.34515 46.8908 1.24275 46.814C1.08915 46.686 0.935547 46.4556 0.935547 46.3788L2.03635 42.7948L1.75475 42.59C1.67795 42.5388 1.65235 42.4364 1.67795 42.334L3.98195 34.654L26.0491 4.42043L28.4555 1.11803C28.5579 1.01563 28.5835 1.01562 28.7627 1.01562C29.4539 1.06683 34.5484 3.98523 36.3148 6.41723C36.4684 6.62203 36.4683 6.67323 36.4683 6.69883L34.2411 9.79643L34.0363 10.078L12.0459 40.3372L5.46675 45.0476C5.44115 45.0732 5.38995 45.0732 5.36435 45.0732C5.31315 45.0732 5.26195 45.0476 5.23635 45.022L4.95475 44.8684L1.93395 47.1212V47.0444Z" fill="white"/>
</g>
<g opacity="0.24">
<path d="M1.93395 47.0444C1.72915 47.0444 1.34515 46.8908 1.24275 46.814C1.08915 46.686 0.935547 46.4556 0.935547 46.3788L2.03635 42.7948L1.75475 42.59C1.67795 42.5388 1.65235 42.4364 1.67795 42.334L3.98195 34.654L26.0491 4.42043L28.4555 1.11803C28.5579 1.01563 28.5835 1.01562 28.7627 1.01562C29.4539 1.06683 34.5484 3.98523 36.3148 6.41723C36.4684 6.62203 36.4683 6.67323 36.4683 6.69883L34.2411 9.79643L34.0363 10.078L12.0459 40.3372L5.46675 45.0476C5.44115 45.0732 5.38995 45.0732 5.36435 45.0732C5.31315 45.0732 5.26195 45.0476 5.23635 45.022L4.95475 44.8684L1.93395 47.1212V47.0444Z" fill="white"/>
</g>
</g>
<path d="M2.65016 45.2002L20.519 24.797L33.7798 8.05464L26.5606 3.52344L25.6646 4.06104L3.52056 34.397L1.19096 42.1794C1.11416 42.4866 1.21656 42.7938 1.47256 42.973L2.65016 45.2002Z" fill="#41A5EE"/>
<path d="M4.95313 45.4535C5.20913 45.6071 5.51633 45.6071 5.74673 45.4279L12.4027 40.6919L34.4443 10.3559L30.5275 6.00391L2.80273 44.4039L4.95313 45.4535Z" fill="#2B7CD3"/>
<path d="M34.4451 10.33L36.8771 6.97642C37.0819 6.69482 36.9795 6.43882 36.7235 6.08042C34.9059 3.57162 29.4787 0.397223 28.7619 0.474023C28.4291 0.499623 28.3523 0.499623 28.0707 0.755623L25.6387 4.10922L34.4451 10.33Z" fill="#103F91"/>
<path d="M4.41485 42.1797L1.47085 42.9733L0.472452 46.3013C0.421253 46.5829 0.728453 46.9925 0.958853 47.1717C1.18925 47.3509 1.90605 47.6325 2.21325 47.4789L4.97805 45.4309C4.95245 45.4565 4.41485 42.1797 4.41485 42.1797Z" fill="#103F91"/>
</g>
<defs>
<clipPath id="clip0_122_779">
<rect width="48" height="48" fill="white"/>
</clipPath>
</defs>
</svg>
